<?xml version="1.0" encoding="UTF-8"?>
<svg version="1.1" xmlns="http://www.w3.org/2000/svg" width="1024" height="1024">
<path d="M0 0 C1.15048828 0.99580078 1.15048828 0.99580078 2.32421875 2.01171875 C3.14277344 2.68589844 3.96132813 3.36007812 4.8046875 4.0546875 C25.47267127 21.64650625 40.84339972 50.75298674 43.17919922 77.73779297 C45.31126858 111.16892775 38.20050574 141.91505073 16.32421875 168.01171875 C15.60621094 168.88054687 14.88820313 169.749375 14.1484375 170.64453125 C-5.37163112 193.31970865 -34.08305429 207.15124165 -63.67578125 210.01171875 C-88.36076075 211.62279595 -112.46787583 207.11567146 -134.67578125 196.01171875 C-135.29453125 195.74359375 -135.91328125 195.47546875 -136.55078125 195.19921875 C-138.67578125 194.01171875 -138.67578125 194.01171875 -140.5078125 192.14453125 C-142.70634946 189.98164624 -144.92741907 188.41039394 -147.48828125 186.69921875 C-172.69890587 168.48967547 -188.99210866 140.61467247 -194.27441406 110.11328125 C-198.42514401 78.03854079 -191.2707696 45.97906103 -171.67578125 20.01171875 C-150.15631222 -6.44644036 -121.20674846 -22.90270555 -87.1706543 -26.421875 C-55.92763565 -29.37885659 -24.11803116 -20.29103779 0 0 Z " fill="#1EA1F7" transform="translate(366.67578125,413.98828125)"/>
<path d="M0 0 C0.66 0 1.32 0 2 0 C9.57046159 32.76027127 4.21460041 64.28941502 -13 93 C-15.71904411 97.22863241 -18.77138993 101.14852533 -22 105 C-22.71800781 105.86882812 -23.43601562 106.73765625 -24.17578125 107.6328125 C-43.69584987 130.3079899 -72.40727304 144.1395229 -102 147 C-126.6849795 148.6110772 -150.79209458 144.10395271 -173 133 C-173.61875 132.731875 -174.2375 132.46375 -174.875 132.1875 C-177 131 -177 131 -178.83203125 129.1328125 C-181.03056821 126.96992749 -183.25163782 125.39867519 -185.8125 123.6875 C-209.82618941 106.3424987 -224.89241077 80.9190818 -231.625 52.34765625 C-232.01325328 49.91702892 -232.09920568 47.64678045 -232.0625 45.1875 C-232.05347656 44.39730469 -232.04445312 43.60710938 -232.03515625 42.79296875 C-232.02355469 42.20128906 -232.01195312 41.60960937 -232 41 C-230.47523843 43.82434739 -229.57580073 46.45294604 -228.8125 49.5625 C-224.45045489 64.34136925 -212.25481743 76.7781444 -199.328125 84.62109375 C-181.19241945 94.44868554 -161.68508834 95.3489734 -142 90 C-118.89937623 83.09418633 -102.25707662 65.83571065 -87.5625 47.5 C-68.95532908 24.63883363 -43.59197349 8.21909833 -14.0625 4.26953125 C-9.36628314 3.85621625 -4.70877285 3.83014447 0 4 C0 2.68 0 1.36 0 0 Z " fill="#0A5EC2" transform="translate(405,477)"/>
<path d="M0 0 C57.50992211 0 57.50992211 0 73.44921875 15.1953125 C83.58675443 26.34194438 86.83203121 39.0861669 86.35546875 53.76953125 C85.97387766 59.85983528 84.2711347 65.36159267 82 71 C81.71125 71.74636719 81.4225 72.49273437 81.125 73.26171875 C76.66655283 83.3927438 68.47668861 89.80310625 59 95 C46 99 46 99 0 99 C0 66.33 0 33.66 0 0 Z M22 21 C22 40.14 22 59.28 22 79 C39.68827826 80.18223431 39.68827826 80.18223431 53.8125 72.5625 C54.534375 71.716875 55.25625 70.87125 56 70 C57.051875 68.88625 57.051875 68.88625 58.125 67.75 C62.64941317 61.11419401 63.81840037 53.93218818 63 46 C62.67 45.67 62.34 45.34 62 45 C61.938125 43.824375 61.87625 42.64875 61.8125 41.4375 C60.99904369 34.54777157 56.40104658 29.92972858 51.25 25.625 C42.41998679 19.50551816 32.5326602 21 22 21 Z " fill="#0A5CBF" transform="translate(452,392)"/>
<path d="M0 0 C1.22355698 0.00222061 2.44711395 0.00444122 3.70774841 0.00672913 C4.71746201 0.00651009 4.71746201 0.00651009 5.74757385 0.00628662 C7.98229649 0.00698573 10.21693674 0.01477799 12.4516449 0.02259827 C13.99721226 0.02446245 15.54278022 0.02588635 17.08834839 0.02688599 C21.16380941 0.03071112 25.23923502 0.04054135 29.31468201 0.05158997 C33.47035747 0.0618042 37.62603864 0.06638363 41.78172302 0.07142639 C49.94124633 0.08216363 58.10073401 0.09976038 66.26023865 0.12025452 C66.26023865 6.72025452 66.26023865 13.32025452 66.26023865 20.12025452 C50.42023865 20.12025452 34.58023865 20.12025452 18.26023865 20.12025452 C18.59023865 21.44025452 18.92023865 22.76025452 19.26023865 24.12025452 C18.93023865 29.40025452 18.60023865 34.68025452 18.26023865 40.12025452 C32.12023865 40.12025452 45.98023865 40.12025452 60.26023865 40.12025452 C60.26023865 46.06025452 60.26023865 52.00025452 60.26023865 58.12025452 C59.26023865 59.12025452 59.26023865 59.12025452 55.38304138 59.23377991 C53.65329697 59.23362073 51.92354784 59.22792301 50.1938324 59.21791077 C49.2852095 59.21649582 48.37658661 59.21508087 47.44042969 59.21362305 C44.52616644 59.20800645 41.61197884 59.19545117 38.69773865 59.18275452 C36.72703663 59.17774165 34.75633341 59.17317838 32.78562927 59.16908264 C27.94380306 59.15803163 23.1020337 59.1407559 18.26023865 59.12025452 C18.42249939 59.88321838 18.58476013 60.64618225 18.75193787 61.43226624 C19.31748004 64.42295756 19.39286296 67.20315333 19.38523865 70.24525452 C19.38910583 71.7959967 19.38910583 71.7959967 19.39305115 73.37806702 C19.26023865 76.12025452 19.26023865 76.12025452 18.26023865 79.12025452 C18.84683762 79.11803391 19.43343658 79.11581329 20.03781128 79.11352539 C26.12049249 79.09147242 32.20316242 79.07634787 38.28587341 79.06532288 C40.55866456 79.06028126 42.83145245 79.05344814 45.10423279 79.04481506 C48.36327416 79.03274191 51.62227281 79.02702465 54.8813324 79.02259827 C55.90423874 79.01743698 56.92714508 79.0122757 57.98104858 79.00695801 C58.92194839 79.00688248 59.86284821 79.00680695 60.83226013 79.00672913 C61.66498947 79.00450851 62.49771881 79.0022879 63.35568237 79 C65.26023865 79.12025452 65.26023865 79.12025452 66.26023865 80.12025452 C66.34675476 81.53595575 66.36728769 82.95584952 66.3578949 84.37416077 C66.35306091 85.65516663 66.35306091 85.65516663 66.34812927 86.96205139 C66.33556091 88.30879944 66.33556091 88.30879944 66.32273865 89.68275452 C66.31822693 90.58445374 66.31371521 91.48615295 66.30906677 92.41517639 C66.29724089 94.65026765 66.28076085 96.88522888 66.26023865 99.12025452 C57.16791774 99.14339487 48.07560692 99.16117827 38.98326302 99.17206669 C34.76161282 99.1772918 30.53998274 99.18438273 26.31834412 99.19569397 C22.24647193 99.20653602 18.17461912 99.21253416 14.10273361 99.21513176 C12.54695709 99.21698362 10.99118166 99.22059969 9.43541336 99.22598457 C7.26127557 99.23321247 5.08721849 99.23424472 2.91307068 99.23377991 C1.05441879 99.23711082 1.05441879 99.23711082 -0.84178162 99.24050903 C-3.73976135 99.12025452 -3.73976135 99.12025452 -5.73976135 98.12025452 C-5.73976135 97.46025452 -5.73976135 96.80025452 -5.73976135 96.12025452 C-5.07976135 96.12025452 -4.41976135 96.12025452 -3.73976135 96.12025452 C-3.74198196 94.93230789 -3.74420258 93.74436127 -3.74649048 92.52041626 C-3.76672027 81.35117465 -3.7817327 70.18193674 -3.79157352 59.01268101 C-3.79680277 53.26980389 -3.80390116 47.52694151 -3.81520081 41.78407288 C-3.82602823 36.24685457 -3.83203788 30.70965048 -3.8346386 25.17242241 C-3.83649311 23.05481174 -3.84011422 20.9372019 -3.84549141 18.81959724 C-3.85269991 15.86454177 -3.85375238 12.90954581 -3.85328674 9.95448303 C-3.85688202 9.06975815 -3.86047729 8.18503326 -3.86418152 7.27349854 C-3.85198473 0.1690726 -3.85198473 0.1690726 0 0 Z " fill="#095EC3" transform="translate(557.7397613525391,391.87974548339844)"/>
<path d="M0 0 C0.9583374 0.00523682 1.9166748 0.01047363 2.90405273 0.01586914 C4.45576172 0.02070312 4.45576172 0.02070312 6.03881836 0.02563477 C7.12743164 0.03401367 8.21604492 0.04239258 9.33764648 0.05102539 C10.97636719 0.05779297 10.97636719 0.05779297 12.64819336 0.06469727 C15.35723144 0.07652713 18.06616248 0.09300996 20.77514648 0.11352539 C23.6550529 6.73844846 26.27966888 13.25055325 28.09936523 20.25024414 C28.60674606 22.31614 28.60674606 22.31614 30.77514648 23.11352539 C31.49308777 25.25337219 31.49308777 25.25337219 32.16259766 28.02880859 C33.61604425 33.67253437 35.48498046 39.03421558 37.57592773 44.46899414 C37.93478561 45.41430496 38.29364349 46.35961578 38.66337585 47.33357239 C39.79999551 50.32457861 40.94360537 53.31285106 42.08764648 56.30102539 C42.84268466 58.28326416 43.59724533 60.26568489 44.35131836 62.24829102 C44.72062469 63.21848175 45.08993103 64.18867249 45.47042847 65.18826294 C46.20252579 67.11253201 46.93391979 69.03706883 47.6645813 70.96188354 C49.31541253 75.30593003 50.97879958 79.64323169 52.69067383 83.96362305 C52.97839157 84.70034744 53.26610931 85.43707184 53.56254578 86.19612122 C54.09002241 87.54576994 54.62588601 88.89218534 55.17195129 90.23442078 C56.45406649 93.54329709 57.16401078 95.7496658 55.77514648 99.11352539 C54.59436523 99.10192383 53.41358398 99.09032227 52.19702148 99.07836914 C50.6397314 99.06898788 49.08243961 99.05988803 47.52514648 99.05102539 C46.7478418 99.04264648 45.97053711 99.03426758 45.16967773 99.02563477 C44.41557617 99.02241211 43.66147461 99.01918945 42.88452148 99.01586914 C42.19326172 99.01063232 41.50200195 99.00539551 40.78979492 99 C38.67540751 99.11914568 36.80873133 99.53734302 34.77514648 100.11352539 C32.240262 96.210844 30.62660721 92.31183238 29.08764648 87.92602539 C28.6506543 86.6949707 28.21366211 85.46391602 27.76342773 84.19555664 C26.77514648 81.11352539 26.77514648 81.11352539 26.77514648 79.11352539 C14.89514648 79.11352539 3.01514648 79.11352539 -9.22485352 79.11352539 C-10.21485352 82.74352539 -11.20485352 86.37352539 -12.22485352 90.11352539 C-12.88485352 91.76352539 -13.54485352 93.41352539 -14.22485352 95.11352539 C-13.56485352 95.44352539 -12.90485352 95.77352539 -12.22485352 96.11352539 C-13.21485352 96.11352539 -14.20485352 96.11352539 -15.22485352 96.11352539 C-15.22485352 96.77352539 -15.22485352 97.43352539 -15.22485352 98.11352539 C-23.14485352 98.44352539 -31.06485352 98.77352539 -39.22485352 99.11352539 C-39.22485352 94.87931926 -37.45137448 91.46491833 -35.84985352 87.61352539 C-32.60076716 79.64339492 -29.51048478 71.62808211 -26.53735352 63.55102539 C-26.12928467 62.44291504 -25.72121582 61.33480469 -25.30078125 60.19311523 C-24.42377078 57.80949693 -23.54724431 55.42570051 -22.67114258 53.04174805 C-20.21669461 46.36926219 -17.74120477 39.70455555 -15.26644897 33.0395813 C-14.43642579 30.80337955 -13.60755177 28.5667545 -12.77880859 26.33007812 C-10.34144744 19.75741199 -7.8899822 13.19013206 -5.40063477 6.63696289 C-5.00400635 5.5920166 -4.60737793 4.54707031 -4.19873047 3.47045898 C-2.82429541 0.14411252 -2.82429541 0.14411252 0 0 Z M8.77514648 27.11352539 C9.77514648 29.11352539 9.77514648 29.11352539 9.77514648 29.11352539 Z M7.77514648 29.11352539 C6.20657936 33.50938167 4.6400513 37.90595702 3.07543945 42.30322266 C2.54247649 43.80016897 2.00894897 45.2969144 1.47485352 46.79345703 C0.7088945 48.93998966 -0.0550558 51.0872278 -0.81860352 53.23461914 C-1.05921509 53.90754501 -1.29982666 54.58047089 -1.54772949 55.27378845 C-2.72463204 58.12485663 -2.72463204 58.12485663 -3.22485352 61.11352539 C4.69514648 61.11352539 12.61514648 61.11352539 20.77514648 61.11352539 C18.78087675 53.80120302 16.73751936 46.63908417 14.27514648 39.48852539 C13.97995117 38.59262695 13.68475586 37.69672852 13.38061523 36.77368164 C13.08799805 35.92418945 12.79538086 35.07469727 12.49389648 34.19946289 C12.23543945 33.43682129 11.97698242 32.67417969 11.71069336 31.88842773 C10.84662632 29.75302793 10.84662632 29.75302793 7.77514648 29.11352539 Z " fill="#0859BE" transform="translate(652.224853515625,513.886474609375)"/>
<path d="M0 0 C7.92 0 15.84 0 24 0 C27.34010461 7.92115596 30.52756096 15.87359582 33.546875 23.921875 C33.9623761 25.02436584 34.3778772 26.12685669 34.80596924 27.26275635 C36.12260337 30.75777105 37.4363422 34.25386567 38.75 37.75 C39.61439507 40.04564381 40.47897719 42.34121721 41.34375 44.63671875 C44.76205849 53.71398639 48.17447132 62.79344776 51.57617188 71.87695312 C51.98683899 72.97332092 52.3975061 74.06968872 52.82061768 75.19927979 C53.59618653 77.27048713 54.37124146 79.34188702 55.14569092 81.41351318 C55.49238831 82.3395636 55.83908569 83.26561401 56.19628906 84.21972656 C56.49762756 85.0255719 56.79896606 85.83141724 57.10943604 86.66168213 C57.73890674 88.31445797 58.43467389 89.94269264 59.17523193 91.54876709 C60 94 60 94 59 98 C51.41 97.67 43.82 97.34 36 97 C34.53515625 92.94726562 34.53515625 92.94726562 33.0703125 88.89453125 C32.37780966 87.02174072 31.64562863 85.16295037 30.8671875 83.32421875 C30 81 30 81 30 78 C18.12 78 6.24 78 -6 78 C-6.66 80.97 -7.32 83.94 -8 87 C-8.65410414 88.8739845 -9.35245923 90.73415351 -10.125 92.5625 C-10.47820313 93.40941406 -10.83140625 94.25632812 -11.1953125 95.12890625 C-11.46085938 95.74636719 -11.72640625 96.36382813 -12 97 C-13.07121094 97.04898438 -14.14242187 97.09796875 -15.24609375 97.1484375 C-16.64325639 97.22345294 -18.0403905 97.2990013 -19.4375 97.375 C-20.14455078 97.4059375 -20.85160156 97.436875 -21.58007812 97.46875 C-23.39239188 97.57280629 -25.19817988 97.77919892 -27 98 C-27.495 98.99 -27.495 98.99 -28 100 C-28.66 100 -29.32 100 -30 100 C-30.66 99.34 -31.32 98.68 -32 98 C-34.06874034 97.3574765 -34.06874034 97.3574765 -36 97 C-35.4140625 90.84765625 -35.4140625 90.84765625 -35 89 C-34.01 88.505 -34.01 88.505 -33 88 C-31.88893815 85.6978777 -31.88893815 85.6978777 -30.86108398 82.84106445 C-30.44402695 81.73934402 -30.02696991 80.6376236 -29.59727478 79.5025177 C-29.15138504 78.30156967 -28.7054953 77.10062164 -28.24609375 75.86328125 C-27.78517838 74.63594772 -27.324263 73.4086142 -26.84938049 72.14408875 C-25.87233821 69.54052153 -24.90031785 66.93515052 -23.93188477 64.32836914 C-22.69410148 60.99745763 -21.44524507 57.67083564 -20.19268703 54.34545612 C-18.99657199 51.16597797 -17.80914515 47.9832815 -16.62109375 44.80078125 C-16.17317978 43.60995438 -15.72526581 42.4191275 -15.26377869 41.19221497 C-14.84987381 40.07473373 -14.43596893 38.9572525 -14.00952148 37.8059082 C-13.64471176 36.82741409 -13.27990204 35.84891998 -12.90403748 34.84077454 C-11.96909349 31.90288187 -11.43288436 29.04903232 -11 26 C-10.34 26 -9.68 26 -9 26 C-8.77957031 25.195625 -8.77957031 25.195625 -8.5546875 24.375 C-6.17560265 16.06187593 -3.07962291 8.07545563 0 0 Z M12 26 C8.04 37.22 4.08 48.44 0 60 C7.92 60 15.84 60 24 60 C20.48071747 48.61408593 16.8038252 37.29383153 13 26 C12.67 26 12.34 26 12 26 Z " fill="#085ABE" transform="translate(804,515)"/>
<path d="M0 0 C55.24045264 1.17532878 55.24045264 1.17532878 64.2109375 9.83203125 C70.58272232 17.55329888 73.37268024 26.04805717 73 36 C72.01319851 45.32306479 68.42892103 52.55526507 61.1328125 58.46484375 C49.13408012 67.10129398 36.19996119 66.19999945 22 66 C22 76.56 22 87.12 22 98 C15.82119817 99.54470046 10.19991028 99.23998206 4 98 C3.67 98.99 3.34 99.98 3 101 C3 100.34 3 99.68 3 99 C2.01 98.67 1.02 98.34 0 98 C0 65.66 0 33.32 0 0 Z M22 20 C22 28.91 22 37.82 22 47 C35.57506742 47.76439175 35.57506742 47.76439175 47.4375 42 C50.40338472 38.20366756 50.31627428 34.6650456 50 30 C48.43219521 25.29658564 46.42463532 23.18245377 42.08374023 20.80932617 C38.30152549 19.3403113 34.56034318 19.58380621 30.5625 19.75 C27.736875 19.8325 24.91125 19.915 22 20 Z " fill="#0B5CBF" transform="translate(452,514)"/>
<path d="M0 0 C25.74 0 51.48 0 78 0 C78 6.27 78 12.54 78 19 C76.26442567 20.73557433 73.86901892 20.21164975 71.50390625 20.28125 C69.83038086 20.33732422 69.83038086 20.33732422 68.12304688 20.39453125 C66.36057617 20.44673828 66.36057617 20.44673828 64.5625 20.5 C62.25117264 20.56869107 59.93996017 20.64140371 57.62890625 20.71875 C56.0831189 20.76418945 56.0831189 20.76418945 54.50610352 20.81054688 C52.0030362 20.84076615 52.0030362 20.84076615 50 22 C49.505 20.515 49.505 20.515 49 19 C49 44.74 49 70.48 49 97 C36.69491525 98.11864407 36.69491525 98.11864407 31 98 C30.01 98 29.02 98 28 98 C27.02664276 93.90124137 26.84625721 90.03040952 26.79467773 85.82299805 C26.78477814 85.12001083 26.77487854 84.41702362 26.76467896 83.69273376 C26.7332367 81.38242901 26.70837532 79.07210374 26.68359375 76.76171875 C26.66300928 75.15460188 26.64201242 73.54749024 26.62062073 71.94038391 C26.56555421 67.72036998 26.51607724 63.50030844 26.46777344 59.2802124 C26.41744549 54.96996854 26.3618185 50.6597934 26.30664062 46.34960938 C26.19924779 37.89979777 26.09776129 29.4499285 26 21 C25.28344238 21.01047363 24.56688477 21.02094727 23.82861328 21.03173828 C20.59411095 21.07321299 17.35966447 21.09929892 14.125 21.125 C12.99707031 21.14175781 11.86914062 21.15851562 10.70703125 21.17578125 C9.09248047 21.18544922 9.09248047 21.18544922 7.4453125 21.1953125 C5.95281982 21.21102295 5.95281982 21.21102295 4.43017578 21.22705078 C2 21 2 21 0 19 C0 12.73 0 6.46 0 0 Z " fill="#0456BC" transform="translate(700,515)"/>
<path d="M0 0 C1.40475586 -0.00193359 1.40475586 -0.00193359 2.83789062 -0.00390625 C4.30838867 0.00189453 4.30838867 0.00189453 5.80859375 0.0078125 C6.79279297 0.00394531 7.77699219 0.00007813 8.79101562 -0.00390625 C9.72623047 -0.00261719 10.66144531 -0.00132812 11.625 0 C12.48681885 0.00112793 13.3486377 0.00225586 14.23657227 0.00341797 C16.24609375 0.1328125 16.24609375 0.1328125 17.24609375 1.1328125 C17.34108021 3.56677269 17.37167792 5.97224202 17.35961914 8.40649414 C17.35976517 9.16741867 17.35991119 9.9283432 17.36006165 10.71232605 C17.35936237 13.23923548 17.3515693 15.76607212 17.34375 18.29296875 C17.34188587 20.0403184 17.34046195 21.78766857 17.33946228 23.53501892 C17.33563668 28.14313184 17.32580604 32.75121345 17.3147583 37.35931396 C17.30454509 42.05789771 17.29996485 46.75648649 17.29492188 51.45507812 C17.2841838 60.68100337 17.26710688 69.90690534 17.24609375 79.1328125 C19.1012561 79.12495728 19.1012561 79.12495728 20.99389648 79.11694336 C25.565341 79.09889689 30.13678234 79.08738179 34.70825195 79.07788086 C36.69002816 79.07283983 38.67180064 79.06600712 40.65356445 79.05737305 C43.49561484 79.04529735 46.33761622 79.03958205 49.1796875 79.03515625 C50.07135117 79.02999496 50.96301483 79.02483368 51.88169861 79.01951599 C54.00349976 79.01932073 56.12520155 79.0707122 58.24609375 79.1328125 C59.24609375 80.1328125 59.24609375 80.1328125 59.35961914 81.99047852 C59.35176392 83.17661743 59.35176392 83.17661743 59.34375 84.38671875 C59.33891602 85.66772461 59.33891602 85.66772461 59.33398438 86.97460938 C59.32141602 88.32135742 59.32141602 88.32135742 59.30859375 89.6953125 C59.30408203 90.59701172 59.29957031 91.49871094 59.29492188 92.42773438 C59.283096 94.66282564 59.26661595 96.89778687 59.24609375 99.1328125 C50.936075 99.15595565 42.62606967 99.17373768 34.31602669 99.18462467 C30.45758045 99.18984917 26.59915622 99.19693899 22.74072266 99.20825195 C19.01897845 99.21909618 15.29725545 99.22509261 11.57549667 99.22768974 C10.15369203 99.22954121 8.73188858 99.23315653 7.31009293 99.23854256 C5.32278825 99.24577322 3.33546236 99.24622073 1.34814453 99.24633789 C-0.35062332 99.24966881 -0.35062332 99.24966881 -2.08370972 99.25306702 C-4.75390625 99.1328125 -4.75390625 99.1328125 -6.75390625 98.1328125 C-6.75390625 96.4828125 -6.75390625 94.8328125 -6.75390625 93.1328125 C-6.42390625 93.1328125 -6.09390625 93.1328125 -5.75390625 93.1328125 C-5.73074819 81.72812454 -5.71297345 70.32344217 -5.70209408 58.9187355 C-5.69687285 53.62322408 -5.68978895 48.32772873 -5.6784668 43.03222656 C-5.66761098 37.92292879 -5.66162367 32.81364649 -5.65902901 27.70433807 C-5.65717963 25.75388088 -5.65356834 23.80342455 -5.64817619 21.85297394 C-5.64093006 19.12364361 -5.63991683 16.39437744 -5.64038086 13.66503906 C-5.63678558 12.85655518 -5.63319031 12.04807129 -5.62948608 11.21508789 C-5.63599907 7.68089777 -5.80308875 4.53295903 -6.75390625 1.1328125 C-4.3167441 -0.08576857 -2.72116568 0.00355675 0 0 Z M-5.75390625 2.1328125 C-4.75390625 4.1328125 -4.75390625 4.1328125 -4.75390625 4.1328125 Z " fill="#0456BC" transform="translate(646.75390625,391.8671875)"/>
<path d="M0 0 C6.93 0.33 13.86 0.66 21 1 C21.33 26.41 21.66 51.82 22 78 C35.86 78 49.72 78 64 78 C64 84.6 64 91.2 64 98 C60.05066677 98.78986665 56.98959384 99.12634963 53.03222656 99.12939453 C51.26579803 99.13412277 51.26579803 99.13412277 49.46368408 99.13894653 C47.57126984 99.13591019 47.57126984 99.13591019 45.640625 99.1328125 C44.34050476 99.13376923 43.04038452 99.13472595 41.7008667 99.13571167 C38.95730392 99.13718204 36.21377381 99.13505396 33.47021484 99.13037109 C29.94711865 99.12465162 26.42409826 99.12797092 22.90100479 99.13394356 C19.54337201 99.13841352 16.18575994 99.13529059 12.828125 99.1328125 C10.92356537 99.13584885 10.92356537 99.13584885 8.98052979 99.13894653 C7.81551941 99.13579437 6.65050903 99.13264221 5.45019531 99.12939453 C3.90395477 99.12820114 3.90395477 99.12820114 2.32647705 99.12698364 C0 99 0 99 -1 98 C-1.10062747 94.99186514 -1.1361474 92.00664971 -1.12939453 88.99804688 C-1.13114685 88.0534108 -1.13289917 87.10877472 -1.13470459 86.13551331 C-1.1391248 82.9965738 -1.13618452 79.85769013 -1.1328125 76.71875 C-1.13348549 74.54781076 -1.13445547 72.3768716 -1.13571167 70.20593262 C-1.13718887 65.64948817 -1.13503337 61.09306328 -1.13037109 56.53662109 C-1.1246738 50.68173414 -1.12795268 44.82689302 -1.13394356 38.97200775 C-1.13754857 34.48719942 -1.13641086 30.00240204 -1.13381577 25.51759338 C-1.13314633 23.35811864 -1.1339755 21.19864291 -1.13629532 19.03916931 C-1.13882086 16.02673692 -1.13498264 13.01437987 -1.12939453 10.00195312 C-1.13141876 9.10009781 -1.13344299 8.19824249 -1.13552856 7.26905823 C-1.11426231 1.11426231 -1.11426231 1.11426231 0 0 Z " fill="#0C5ABC" transform="translate(540,514)"/>
<path d="M0 0 C22.77 0 45.54 0 69 0 C69 5.94 69 11.88 69 18 C53.49 18 37.98 18 22 18 C22 17.67 22 17.34 22 17 C37.18 17 52.36 17 68 17 C68 11.72 68 6.44 68 1 C46.55 1 25.1 1 3 1 C3 32.35 3 63.7 3 96 C24.45 96 45.9 96 68 96 C68 90.72 68 85.44 68 80 C52.82 80 37.64 80 22 80 C22 79.67 22 79.34 22 79 C37.84 79 53.68 79 70 79 C70 85.27 70 91.54 70 98 C60.90767583 98.02256591 51.81537017 98.04092375 42.72302437 98.05181217 C38.50137418 98.05703728 34.27974409 98.06412822 30.05810547 98.07543945 C25.98623328 98.0862815 21.91438047 98.09227964 17.84249496 98.09487724 C16.28671844 98.09672911 14.73094302 98.10034518 13.17517471 98.10573006 C11.00103693 98.11295795 8.82697984 98.1139902 6.65283203 98.11352539 C4.79418015 98.11685631 4.79418015 98.11685631 2.89797974 98.12025452 C0 98 0 98 -2 97 C-2 96.34 -2 95.68 -2 95 C-1.34 95 -0.68 95 0 95 C0 63.65 0 32.3 0 0 Z " fill="#1D4494" transform="translate(554,393)"/>
<path d="M0 0 C25.74 0 51.48 0 78 0 C78 6.27 78 12.54 78 19 C76.26442567 20.73557433 73.86901892 20.21164975 71.50390625 20.28125 C69.83038086 20.33732422 69.83038086 20.33732422 68.12304688 20.39453125 C66.36057617 20.44673828 66.36057617 20.44673828 64.5625 20.5 C62.25117264 20.56869107 59.93996017 20.64140371 57.62890625 20.71875 C56.0831189 20.76418945 56.0831189 20.76418945 54.50610352 20.81054688 C52.0030362 20.84076615 52.0030362 20.84076615 50 22 C50.495 20.515 50.495 20.515 51 19 C59.25 19 67.5 19 76 19 C76 13.06 76 7.12 76 1 C51.25 1 26.5 1 1 1 C1 6.61 1 12.22 1 18 C10.24 18 19.48 18 29 18 C30.46854 20.93708001 30.13019549 23.89343705 30.11352539 27.11181641 C30.11367142 27.84362625 30.11381744 28.5754361 30.1139679 29.329422 C30.11327003 31.75349876 30.10548354 34.17749912 30.09765625 36.6015625 C30.09579162 38.28022215 30.09436793 39.95888234 30.09336853 41.63754272 C30.08954688 46.05987038 30.07971959 50.48216528 30.06866455 54.90447998 C30.05844286 59.41548215 30.05386928 63.92648959 30.04882812 68.4375 C30.03809702 77.29168338 30.02050306 86.14583385 30 95 C35.94 95.33 41.88 95.66 48 96 C48 70.59 48 45.18 48 19 C48.33 19 48.66 19 49 19 C49 44.74 49 70.48 49 97 C36.69491525 98.11864407 36.69491525 98.11864407 31 98 C30.01 98 29.02 98 28 98 C27.02664276 93.90124137 26.84625721 90.03040952 26.79467773 85.82299805 C26.78477814 85.12001083 26.77487854 84.41702362 26.76467896 83.69273376 C26.7332367 81.38242901 26.70837532 79.07210374 26.68359375 76.76171875 C26.66300928 75.15460188 26.64201242 73.54749024 26.62062073 71.94038391 C26.56555421 67.72036998 26.51607724 63.50030844 26.46777344 59.2802124 C26.41744549 54.96996854 26.3618185 50.6597934 26.30664062 46.34960938 C26.19924779 37.89979777 26.09776129 29.4499285 26 21 C25.28344238 21.01047363 24.56688477 21.02094727 23.82861328 21.03173828 C20.59411095 21.07321299 17.35966447 21.09929892 14.125 21.125 C12.99707031 21.14175781 11.86914062 21.15851562 10.70703125 21.17578125 C9.09248047 21.18544922 9.09248047 21.18544922 7.4453125 21.1953125 C5.95281982 21.21102295 5.95281982 21.21102295 4.43017578 21.22705078 C2 21 2 21 0 19 C0 12.73 0 6.46 0 0 Z " fill="#0C3D9B" transform="translate(700,515)"/>
<path d="M0 0 C1.40475586 -0.00193359 1.40475586 -0.00193359 2.83789062 -0.00390625 C4.30838867 0.00189453 4.30838867 0.00189453 5.80859375 0.0078125 C6.79279297 0.00394531 7.77699219 0.00007813 8.79101562 -0.00390625 C9.72623047 -0.00261719 10.66144531 -0.00132812 11.625 0 C12.48681885 0.00112793 13.3486377 0.00225586 14.23657227 0.00341797 C16.24609375 0.1328125 16.24609375 0.1328125 17.24609375 1.1328125 C17.34108021 3.56677269 17.37167792 5.97224202 17.35961914 8.40649414 C17.35976517 9.16741867 17.35991119 9.9283432 17.36006165 10.71232605 C17.35936237 13.23923548 17.3515693 15.76607212 17.34375 18.29296875 C17.34188587 20.0403184 17.34046195 21.78766857 17.33946228 23.53501892 C17.33563668 28.14313184 17.32580604 32.75121345 17.3147583 37.35931396 C17.30454509 42.05789771 17.29996485 46.75648649 17.29492188 51.45507812 C17.2841838 60.68100337 17.26710688 69.90690534 17.24609375 79.1328125 C19.1012561 79.12495728 19.1012561 79.12495728 20.99389648 79.11694336 C25.565341 79.09889689 30.13678234 79.08738179 34.70825195 79.07788086 C36.69002816 79.07283983 38.67180064 79.06600712 40.65356445 79.05737305 C43.49561484 79.04529735 46.33761622 79.03958205 49.1796875 79.03515625 C50.07135117 79.02999496 50.96301483 79.02483368 51.88169861 79.01951599 C54.00349976 79.01932073 56.12520155 79.0707122 58.24609375 79.1328125 C59.24609375 80.1328125 59.24609375 80.1328125 59.35961914 81.99047852 C59.35176392 83.17661743 59.35176392 83.17661743 59.34375 84.38671875 C59.33891602 85.66772461 59.33891602 85.66772461 59.33398438 86.97460938 C59.32141602 88.32135742 59.32141602 88.32135742 59.30859375 89.6953125 C59.30408203 90.59701172 59.29957031 91.49871094 59.29492188 92.42773438 C59.283096 94.66282564 59.26661595 96.89778687 59.24609375 99.1328125 C50.936075 99.15595565 42.62606967 99.17373768 34.31602669 99.18462467 C30.45758045 99.18984917 26.59915622 99.19693899 22.74072266 99.20825195 C19.01897845 99.21909618 15.29725545 99.22509261 11.57549667 99.22768974 C10.15369203 99.22954121 8.73188858 99.23315653 7.31009293 99.23854256 C5.32278825 99.24577322 3.33546236 99.24622073 1.34814453 99.24633789 C-0.35062332 99.24966881 -0.35062332 99.24966881 -2.08370972 99.25306702 C-4.75390625 99.1328125 -4.75390625 99.1328125 -6.75390625 98.1328125 C-6.75390625 96.4828125 -6.75390625 94.8328125 -6.75390625 93.1328125 C-6.42390625 93.1328125 -6.09390625 93.1328125 -5.75390625 93.1328125 C-5.73074819 81.72812454 -5.71297345 70.32344217 -5.70209408 58.9187355 C-5.69687285 53.62322408 -5.68978895 48.32772873 -5.6784668 43.03222656 C-5.66761098 37.92292879 -5.66162367 32.81364649 -5.65902901 27.70433807 C-5.65717963 25.75388088 -5.65356834 23.80342455 -5.64817619 21.85297394 C-5.64093006 19.12364361 -5.63991683 16.39437744 -5.64038086 13.66503906 C-5.63678558 12.85655518 -5.63319031 12.04807129 -5.62948608 11.21508789 C-5.63599907 7.68089777 -5.80308875 4.53295903 -6.75390625 1.1328125 C-4.3167441 -0.08576857 -2.72116568 0.00355675 0 0 Z M-3.75390625 1.1328125 C-3.75390625 32.8128125 -3.75390625 64.4928125 -3.75390625 97.1328125 C16.37609375 97.1328125 36.50609375 97.1328125 57.24609375 97.1328125 C56.75109375 89.7078125 56.75109375 89.7078125 56.24609375 82.1328125 C43.04609375 82.1328125 29.84609375 82.1328125 16.24609375 82.1328125 C16.24609375 55.4028125 16.24609375 28.6728125 16.24609375 1.1328125 C9.64609375 1.1328125 3.04609375 1.1328125 -3.75390625 1.1328125 Z M-5.75390625 2.1328125 C-4.75390625 4.1328125 -4.75390625 4.1328125 -4.75390625 4.1328125 Z " fill="#356AB6" transform="translate(646.75390625,391.8671875)"/>
<path d="M0 0 C25.74 0 51.48 0 78 0 C78 6.27 78 12.54 78 19 C76.26442567 20.73557433 73.86901892 20.21164975 71.50390625 20.28125 C69.83038086 20.33732422 69.83038086 20.33732422 68.12304688 20.39453125 C66.36057617 20.44673828 66.36057617 20.44673828 64.5625 20.5 C62.25117264 20.56869107 59.93996017 20.64140371 57.62890625 20.71875 C56.0831189 20.76418945 56.0831189 20.76418945 54.50610352 20.81054688 C52.0030362 20.84076615 52.0030362 20.84076615 50 22 C50.495 20.515 50.495 20.515 51 19 C59.25 19 67.5 19 76 19 C76 13.06 76 7.12 76 1 C51.25 1 26.5 1 1 1 C1 6.61 1 12.22 1 18 C10.24 18 19.48 18 29 18 C28.67 39.45 28.34 60.9 28 83 C27.67 83 27.34 83 27 83 C26.67 62.54 26.34 42.08 26 21 C18.08 21 10.16 21 2 21 C1.34 20.34 0.68 19.68 0 19 C0 12.73 0 6.46 0 0 Z " fill="#4680CA" transform="translate(700,515)"/>
<path d="M0 0 C13.53 0 27.06 0 41 0 C41 5.94 41 11.88 41 18 C36.94721835 18.02320295 32.89461019 18.04303958 28.84179688 18.05493164 C27.46874197 18.05989951 26.09569218 18.0666761 24.72265625 18.07543945 C16.08981994 18.12907915 7.58897059 17.89797465 -1 17 C-1 16.34 -1 15.68 -1 15 C12.53 15 26.06 15 40 15 C40 10.38 40 5.76 40 1 C26.8 1 13.6 1 0 1 C0 0.67 0 0.34 0 0 Z " fill="#143E94" transform="translate(576,433)"/>
<path d="M0 0 C5.44256935 0.89125044 7.91246667 4.71212974 11 9 C16.35862535 18.1182076 19.39836841 26.61390876 19.375 37.1875 C19.37411377 37.92073486 19.37322754 38.65396973 19.37231445 39.40942383 C19.17269939 48.73458829 16.25337879 56.77355105 12 65 C10.7280217 62.45604341 11.18013798 61.7762313 11.99609375 59.10546875 C12.34027344 57.9289978 12.34027344 57.9289978 12.69140625 56.72875977 C13.06072266 55.47083618 13.06072266 55.47083618 13.4375 54.1875 C17.51785971 39.41698593 17.23690022 26.22491013 9.6875 12.5625 C6.92046359 8.0587067 4.23486978 5.09868521 0 2 C0 1.34 0 0.68 0 0 Z " fill="#2253A5" transform="translate(519,404)"/>
<path d="M0 0 C4.23227392 1.52400689 6.27832421 4.6309929 8.75 8.1875 C9.40198364 9.11755859 9.40198364 9.11755859 10.06713867 10.06640625 C28.12705561 36.37860558 28.12705561 36.37860558 26.62109375 47.8984375 C26.31365234 48.93871094 26.31365234 48.93871094 26 50 C24.03896207 47.0584431 23.12133772 44.40293213 22.09838867 41.04736328 C17.95017212 27.51490928 11.54067006 16.52410836 2.78515625 5.42578125 C1 3 1 3 0 0 Z " fill="#2190E8" transform="translate(379,428)"/>
<path d="M0 0 C9.24 0 18.48 0 28 0 C27.67 21.45 27.34 42.9 27 65 C26.67 65 26.34 65 26 65 C25.67 44.54 25.34 24.08 25 3 C17.08 3 9.16 3 1 3 C0.67 2.01 0.34 1.02 0 0 Z " fill="#3D7FCD" transform="translate(701,533)"/>
<path d="M0 0 C0 0.66 0 1.32 0 2 C-16.30684051 8.54391392 -31.82871351 12.21323932 -49.5 12.0625 C-50.51320313 12.05798828 -51.52640625 12.05347656 -52.5703125 12.04882812 C-55.04693827 12.03714593 -57.52343657 12.02076582 -60 12 C-60 11.67 -60 11.34 -60 11 C-55.05 10.67 -50.1 10.34 -45 10 C-45 9.67 -45 9.34 -45 9 C-43.13021484 8.87044922 -43.13021484 8.87044922 -41.22265625 8.73828125 C-28.65531517 7.74550226 -16.91610269 5.70149565 -5.21484375 0.84375 C-3 0 -3 0 0 0 Z " fill="#2D68BA" transform="translate(341,612)"/>
<path d="M0 0 C3.34125 -0.061875 6.6825 -0.12375 10.125 -0.1875 C11.68758545 -0.22846802 11.68758545 -0.22846802 13.28173828 -0.27026367 C18.61336181 -0.31794986 22.42317078 -0.06089054 27 3 C30.84254547 7.25795579 32.15937173 9.75057601 32.25 15.4375 C32.27578125 16.40558594 32.3015625 17.37367188 32.328125 18.37109375 C32 21 32 21 30.484375 22.84765625 C29.99453125 23.22792969 29.5046875 23.60820313 29 24 C29.03480469 23.20335937 29.06960938 22.40671875 29.10546875 21.5859375 C29.47801631 13.29379688 29.47801631 13.29379688 26 6 C22.94960779 4.09793151 22.94960779 4.09793151 20 3 C20 2.34 20 1.68 20 1 C13.73 1 7.46 1 1 1 C1 10.24 1 19.48 1 29 C0.67 29 0.34 29 0 29 C0 19.43 0 9.86 0 0 Z " fill="#154195" transform="translate(472,532)"/>
<path d="M0 0 C19.305 0.495 19.305 0.495 39 1 C41.5357461 7.76198959 42.86608906 13.02208653 44 20 C51.26 20 58.52 20 66 20 C66.33 19.34 66.66 18.68 67 18 C66.67 19.32 66.34 20.64 66 22 C58.41 21.67 50.82 21.34 43 21 C42.0234375 18.29817708 41.046875 15.59635417 40.0703125 12.89453125 C39.37780966 11.02174072 38.64562863 9.16295037 37.8671875 7.32421875 C37 5 37 5 37 2 C25.12 2 13.24 2 1 2 C0.67 2.99 0.34 3.98 0 5 C0 3.35 0 1.7 0 0 Z " fill="#376AB3" transform="translate(797,591)"/>
<path d="M0 0 C0.33 0 0.66 0 1 0 C1 25.74 1 51.48 1 78 C-11.30508475 79.11864407 -11.30508475 79.11864407 -17 79 C-17.99 79 -18.98 79 -20 79 C-20.33 77.68 -20.66 76.36 -21 75 C-20.67 75.66 -20.34 76.32 -20 77 C-13.4 77 -6.8 77 0 77 C0 51.59 0 26.18 0 0 Z " fill="#4A89D1" transform="translate(748,534)"/>
<path d="M0 0 C3.56287336 3.56287336 4.56257113 8.74420631 6.1875 13.4375 C6.56841797 14.50033203 6.94933594 15.56316406 7.34179688 16.65820312 C7.69693359 17.67720703 8.05207031 18.69621094 8.41796875 19.74609375 C8.74563232 20.68122803 9.0732959 21.6163623 9.41088867 22.57983398 C10 25 10 25 9 28 C0.09 27.67 -8.82 27.34 -18 27 C-18 26.67 -18 26.34 -18 26 C-9.75 26 -1.5 26 7 26 C4.70682781 19.68437022 4.70682781 19.68437022 2.39257812 13.37646484 C0.75436723 8.78223056 -0.46108859 4.95670231 0 0 Z " fill="#2D62B2" transform="translate(666,549)"/>
<path d="M0 0 C1.89213369 2.38573379 3.02391783 4.07175348 4 7 C4.66 7.66 5.32 8.32 6 9 C6.27585938 9.71929688 6.55171875 10.43859375 6.8359375 11.1796875 C8.61318843 15.48564444 11.29280243 19.15939561 13.8984375 23.00390625 C17 27.68646002 17 27.68646002 17 31 C9.47816859 24.38990573 3.46532428 14.35797247 0 5 C-0.12890625 2.2109375 -0.12890625 2.2109375 0 0 Z " fill="#1F56AB" transform="translate(181,548)"/>
<path d="M0 0 C1.52367187 0.39832031 1.52367187 0.39832031 3.078125 0.8046875 C11.3420238 2.93509806 19.54196725 4.78255589 28 6 C28 6.66 28 7.32 28 8 C29.32 8.33 30.64 8.66 32 9 C26.11632814 9.19922139 21.06750504 8.5686029 15.375 7.125 C14.28832031 6.86396484 14.28832031 6.86396484 13.1796875 6.59765625 C4.62329066 4.5050592 4.62329066 4.5050592 1 3 C0.67 2.01 0.34 1.02 0 0 Z " fill="#2057AD" transform="translate(248,614)"/>
<path d="M0 0 C1.47365075 2.75452742 2.4600114 5.34368734 3.21875 8.37109375 C3.42886719 9.19287109 3.63898438 10.01464844 3.85546875 10.86132812 C4.17451172 12.1365332 4.17451172 12.1365332 4.5 13.4375 C6.33160952 20.85328939 6.33160952 20.85328939 9 28 C8.34 28 7.68 28 7 28 C6.67 28.66 6.34 29.32 6 30 C5.18428782 27.43848317 4.37233869 24.87587372 3.5625 22.3125 C3.21735352 21.2306543 3.21735352 21.2306543 2.86523438 20.12695312 C1.17704923 14.76880027 -0.14703037 9.85103457 -0.0625 4.1875 C-0.05347656 3.39730469 -0.04445312 2.60710938 -0.03515625 1.79296875 C-0.02355469 1.20128906 -0.01195312 0.60960937 0 0 Z " fill="#2161B6" transform="translate(173,518)"/>
<path d="M0 0 C3.03268704 2.75781874 4.71630503 5.0558048 6.17578125 8.87890625 C6.52833984 9.79994141 6.88089844 10.72097656 7.24414062 11.66992188 C7.59669922 12.62447266 7.94925781 13.57902344 8.3125 14.5625 C8.8703418 16.00012695 8.8703418 16.00012695 9.43945312 17.46679688 C12.12884453 24.6134664 12.12884453 24.6134664 11 28 C11 27.34 11 26.68 11 26 C10.34 26 9.68 26 9 26 C8.68546875 25.17757812 8.3709375 24.35515625 8.046875 23.5078125 C7.61890625 22.39148438 7.1909375 21.27515625 6.75 20.125 C6.29753906 18.94421875 5.84507812 17.7634375 5.37890625 16.546875 C3.87603651 12.68113641 2.30611807 8.8469687 0.69921875 5.0234375 C0 3 0 3 0 0 Z " fill="#2456A5" transform="translate(828,520)"/>
<path d="M0 0 C-0.66 0 -1.32 0 -2 0 C-2 0.66 -2 1.32 -2 2 C-11.24 2 -20.48 2 -30 2 C-30 1.34 -30 0.68 -30 0 C-25.75038214 -0.19694005 -21.50029973 -0.38092074 -17.25 -0.5625 C-16.0434375 -0.61857422 -14.836875 -0.67464844 -13.59375 -0.73242188 C-11.85351562 -0.80493164 -11.85351562 -0.80493164 -10.078125 -0.87890625 C-9.00981445 -0.9260376 -7.94150391 -0.97316895 -6.84082031 -1.02172852 C-4.33305593 -1.00254744 -2.37796573 -0.74499559 0 0 Z " fill="#123F97" transform="translate(502,577)"/>
<path d="M0 0 C1 2 1 2 0.51855469 3.99951172 C0.23915039 4.80146973 -0.04025391 5.60342773 -0.328125 6.4296875 C-0.63363281 7.30753906 -0.93914063 8.18539062 -1.25390625 9.08984375 C-1.58261719 10.00894531 -1.91132812 10.92804687 -2.25 11.875 C-2.71986328 13.24205078 -2.71986328 13.24205078 -3.19921875 14.63671875 C-4.71951143 18.94526605 -6.09711455 22.42004775 -9 26 C-9 23.03 -9 20.06 -9 17 C-8.34 17 -7.68 17 -7 17 C-6.80664062 16.34773437 -6.61328125 15.69546875 -6.4140625 15.0234375 C-5.61658104 12.34674229 -4.80876432 9.67330473 -4 7 C-3.649375 5.824375 -3.29875 4.64875 -2.9375 3.4375 C-2 1 -2 1 0 0 Z " fill="#2052A5" transform="translate(802,524)"/>
<path d="M0 0 C0.66 0.66 1.32 1.32 2 2 C-2.95 6.95 -7.9 11.9 -13 17 C-13.66 16.34 -14.32 15.68 -15 15 C-10.28109462 9.59947495 -5.69641143 4.38185495 0 0 Z " fill="#34B1F6" transform="translate(214,415)"/>
<path d="M0 0 C0.33 0 0.66 0 1 0 C0.52286718 7.51484184 -0.62582435 10.40810478 -4 18 C-11.26 18 -18.52 18 -26 18 C-26 17.67 -26 17.34 -26 17 C-19.07 17 -12.14 17 -5 17 C-4.34 13.7 -3.68 10.4 -3 7 C-2.06954414 4.63807359 -1.09528906 2.29014985 0 0 Z " fill="#153D8F" transform="translate(796,593)"/>
<path d="M0 0 C9.21472089 -0.79437249 18.28612402 1.85741601 26 7 C25.67 7.99 25.34 8.98 25 10 C24.44054687 9.67386719 23.88109375 9.34773438 23.3046875 9.01171875 C16.94546998 5.54584297 10.93119663 3.92549521 3.80859375 2.67578125 C2.88175781 2.45277344 1.95492188 2.22976563 1 2 C0.67 1.34 0.34 0.68 0 0 Z " fill="#2458AA" transform="translate(491,393)"/>
<path d="M0 0 C12.87 0 25.74 0 39 0 C38.67 0.99 38.34 1.98 38 3 C38 2.34 38 1.68 38 1 C26.12 1 14.24 1 2 1 C1.34 3.64 0.68 6.28 0 9 C-0.33 9 -0.66 9 -1 9 C-1.125 2.25 -1.125 2.25 0 0 Z " fill="#2C5CA8" transform="translate(641,592)"/>
<path d="M0 0 C9.24 0 18.48 0 28 0 C24.66196309 2.22535794 23.37180289 2.28978404 19.45703125 2.4140625 C17.84731445 2.47207031 17.84731445 2.47207031 16.20507812 2.53125 C15.08552734 2.5621875 13.96597656 2.593125 12.8125 2.625 C11.11577148 2.68300781 11.11577148 2.68300781 9.38476562 2.7421875 C6.5900075 2.83652533 3.79525722 2.92211652 1 3 C0.67 2.01 0.34 1.02 0 0 Z " fill="#316ABB" transform="translate(701,533)"/>
<path d="M0 0 C1.54919467 4.64758402 -0.57133709 8.10910604 -2.25 12.5625 C-2.56324219 13.43841797 -2.87648438 14.31433594 -3.19921875 15.21679688 C-3.50988281 16.05404297 -3.82054687 16.89128906 -4.140625 17.75390625 C-4.42454102 18.52033447 -4.70845703 19.2867627 -5.00097656 20.07641602 C-6 22 -6 22 -9 24 C-7.4611016 18.07757281 -5.80341228 12.20335521 -3.9375 6.375 C-3.45603516 4.87066406 -3.45603516 4.87066406 -2.96484375 3.3359375 C-2 1 -2 1 0 0 Z " fill="#255BAD" transform="translate(811,552)"/>
<path d="M0 0 C0.66 0.99 1.32 1.98 2 3 C1.34 4.32 0.68 5.64 0 7 C6.6 7.33 13.2 7.66 20 8 C20.66 6.68 21.32 5.36 22 4 C22 4.66 22 5.32 22 6 C22.66 6.33 23.32 6.66 24 7 C23.01 7 22.02 7 21 7 C21 7.66 21 8.32 21 9 C13.08 9.33 5.16 9.66 -3 10 C-3 6.13304322 -1.58090029 3.4911548 0 0 Z " fill="#376BB7" transform="translate(616,603)"/>
<path d="M0 0 C1 2 1 2 0.50268555 3.93945312 C0.2169165 4.71224609 -0.06885254 5.48503906 -0.36328125 6.28125 C-0.67330078 7.12300781 -0.98332031 7.96476563 -1.30273438 8.83203125 C-1.63595703 9.71246094 -1.96917969 10.59289062 -2.3125 11.5 C-2.63412109 12.38042969 -2.95574219 13.26085937 -3.28710938 14.16796875 C-5.73646406 20.73646406 -5.73646406 20.73646406 -8 23 C-8.39086746 17.60432968 -7.05410842 13.61794221 -5.125 8.6875 C-4.85558594 7.95982422 -4.58617187 7.23214844 -4.30859375 6.48242188 C-2.26420291 1.13210145 -2.26420291 1.13210145 0 0 Z " fill="#1E4FA2" transform="translate(782,578)"/>
<path d="M0 0 C0.66 0.66 1.32 1.32 2 2 C1.625 4.125 1.625 4.125 1 6 C-0.18078125 5.98839844 -1.3615625 5.97679687 -2.578125 5.96484375 C-4.13541508 5.95546248 -5.69270688 5.94636264 -7.25 5.9375 C-8.02730469 5.92912109 -8.80460938 5.92074219 -9.60546875 5.91210938 C-10.35957031 5.90888672 -11.11367188 5.90566406 -11.890625 5.90234375 C-12.58188477 5.89710693 -13.27314453 5.89187012 -13.98535156 5.88647461 C-16.04748771 5.925383 -16.04748771 5.925383 -18.13183594 6.63110352 C-18.74833008 6.75283936 -19.36482422 6.8745752 -20 7 C-20.66 6.34 -21.32 5.68 -22 5 C-21.67 4.01 -21.34 3.02 -21 2 C-21 2.66 -21 3.32 -21 4 C-10.605 3.505 -10.605 3.505 0 3 C0 2.01 0 1.02 0 0 Z " fill="#3C73BD" transform="translate(707,607)"/>
<path d="M0 0 C7.21087059 0.36978824 13.16914498 4.87776008 18 10 C17.67 10.66 17.34 11.32 17 12 C16.01 11.67 15.02 11.34 14 11 C14 10.34 14 9.68 14 9 C13.34 9 12.68 9 12 9 C12 8.34 12 7.68 12 7 C11.278125 6.71125 10.55625 6.4225 9.8125 6.125 C7.20833333 5.08333333 4.60416667 4.04166667 2 3 C2 2.34 2 1.68 2 1 C1.34 0.67 0.68 0.34 0 0 Z " fill="#2A61B1" transform="translate(500,516)"/>
<path d="M0 0 C4.12195559 1.46778123 7.50010489 3.49819088 11.125 5.9375 C12.67574219 6.97197266 12.67574219 6.97197266 14.2578125 8.02734375 C16.41861302 9.58176578 18.21944274 11.04138701 20 13 C16.05879291 12.43697042 13.2491277 11.3208055 10 9 C10 8.34 10 7.68 10 7 C9.278125 6.731875 8.55625 6.46375 7.8125 6.1875 C5.00233617 5.00098638 2.51583443 3.72514361 0 2 C0 1.34 0 0.68 0 0 Z " fill="#2A9CED" transform="translate(346,401)"/>
<path d="M0 0 C0.47050781 0.40992188 0.94101563 0.81984375 1.42578125 1.2421875 C2.04839844 1.78101563 2.67101562 2.31984375 3.3125 2.875 C4.23482422 3.67550781 4.23482422 3.67550781 5.17578125 4.4921875 C7.13498212 6.1640447 7.13498212 6.1640447 10 8 C10 8.66 10 9.32 10 10 C10.639375 10.268125 11.27875 10.53625 11.9375 10.8125 C14 12 14 12 15 15 C11.3879725 13.43394612 8.74476517 11.23242043 5.8125 8.625 C4.93207031 7.85414063 4.05164063 7.08328125 3.14453125 6.2890625 C1.05363794 4.05725289 0.34697237 2.97988034 0 0 Z " fill="#235CB0" transform="translate(206,586)"/>
<path d="M0 0 C0 0.66 0 1.32 0 2 C-2.60014527 3.03227862 -5.20426369 4.05105152 -7.8125 5.0625 C-8.55048828 5.35705078 -9.28847656 5.65160156 -10.04882812 5.95507812 C-15.66015625 8.11328125 -15.66015625 8.11328125 -19 7 C-18.34 7 -17.68 7 -17 7 C-17 6.34 -17 5.68 -17 5 C-14.73117913 4.16080602 -12.46022973 3.32848276 -10.1875 2.5 C-9.54490234 2.26152344 -8.90230469 2.02304687 -8.24023438 1.77734375 C-5.35066261 0.72931254 -3.09923939 0 0 0 Z " fill="#2D63B3" transform="translate(341,612)"/>
<path d="M0 0 C0.33 0.99 0.66 1.98 1 3 C8.26 3 15.52 3 23 3 C23 3.33 23 3.66 23 4 C21.39318359 4.07347656 21.39318359 4.07347656 19.75390625 4.1484375 C18.35674361 4.22345294 16.9596095 4.2990013 15.5625 4.375 C14.85544922 4.4059375 14.14839844 4.436875 13.41992188 4.46875 C11.60760812 4.57280629 9.80182012 4.77919892 8 5 C7.67 5.66 7.34 6.32 7 7 C6.34 7 5.68 7 5 7 C4.34 6.34 3.68 5.68 3 5 C0.93125966 4.3574765 0.93125966 4.3574765 -1 4 C-0.67 2.68 -0.34 1.36 0 0 Z " fill="#386CB7" transform="translate(769,608)"/>
<path d="M0 0 C4.16246514 4.16246514 5.86009043 10.93633387 6.25 16.6875 C6.1675 17.450625 6.085 18.21375 6 19 C2.21292557 13.31938835 -0.73095344 6.94405768 0 0 Z " fill="#2253A5" transform="translate(694,572)"/>
<path d="M0 0 C0.33 0 0.66 0 1 0 C0.51969656 6.48409637 -0.99968316 12.19183947 -4 18 C-4.66 18.33 -5.32 18.66 -6 19 C-5.38221953 16.39392608 -4.75612789 13.79034303 -4.125 11.1875 C-3.95097656 10.44951172 -3.77695312 9.71152344 -3.59765625 8.95117188 C-2.75507489 5.50282963 -1.98714425 2.98071638 0 0 Z " fill="#295FAF" transform="translate(536,450)"/>
<path d="M0 0 C-6.24161903 3.58125682 -10.75420281 5.67090715 -18 5 C-15.04433403 3.48795792 -12.05865561 2.10403598 -9 0.8125 C-8.154375 0.44769531 -7.30875 0.08289063 -6.4375 -0.29296875 C-3.80004641 -1.05799936 -2.54482404 -0.92485503 0 0 Z " fill="#2250A1" transform="translate(516,484)"/>
<path d="M0 0 C3 2 3 2 3.67578125 4.64453125 C4.03302663 8.34180575 4.16901847 11.97271319 4.1875 15.6875 C4.20167969 16.99074219 4.21585938 18.29398437 4.23046875 19.63671875 C4 23 4 23 2 26 C2.03480469 24.22882813 2.03480469 24.22882813 2.0703125 22.421875 C2.08907497 20.86458967 2.10727466 19.30729748 2.125 17.75 C2.14175781 16.97269531 2.15851562 16.19539063 2.17578125 15.39453125 C2.21030701 11.35501748 2.17184637 8.52925035 0 5 C-0.125 2.25 -0.125 2.25 0 0 Z " fill="#062B81" transform="translate(513,427)"/>
<path d="M0 0 C4.10088936 1.50607883 5.53509554 3.96188878 7.75 7.625 C8.36359375 8.62789062 8.9771875 9.63078125 9.609375 10.6640625 C10.06828125 11.43492187 10.5271875 12.20578125 11 13 C10.01 13 9.02 13 8 13 C5.95703125 10.6640625 5.95703125 10.6640625 3.8125 7.625 C2.73935547 6.12839844 2.73935547 6.12839844 1.64453125 4.6015625 C0 2 0 2 0 0 Z " fill="#285DAE" transform="translate(188,565)"/>
<path d="M0 0 C4.62 0 9.24 0 14 0 C14 0.66 14 1.32 14 2 C15.32 2.33 16.64 2.66 18 3 C11.71739294 3.23268915 6.11980533 2.40454548 0 1 C0 0.67 0 0.34 0 0 Z " fill="#2B69BA" transform="translate(262,620)"/>
<path d="M0 0 C0.33 0.66 0.66 1.32 1 2 C7.6 2 14.2 2 21 2 C16.81366166 4.09316917 14.99629963 4.21835426 10.4375 4.125 C8.73400391 4.09792969 8.73400391 4.09792969 6.99609375 4.0703125 C6.00738281 4.04710937 5.01867187 4.02390625 4 4 C3.01 4 2.02 4 1 4 C0.67 2.68 0.34 1.36 0 0 Z " fill="#386DB9" transform="translate(727,609)"/>
<path d="M0 0 C0.33 0 0.66 0 1 0 C1.40652968 5.42039575 0.03993514 9.07015675 -2 14 C-2.66 14 -3.32 14 -4 14 C-3.46148032 8.72250715 -2.22656164 4.74354436 0 0 Z " fill="#2054A5" transform="translate(659,540)"/>
<path d="M0 0 C1.1171875 1.671875 1.1171875 1.671875 2 4 C1.3203125 6.578125 1.3203125 6.578125 0.125 9.25 C-0.26429688 10.14203125 -0.65359375 11.0340625 -1.0546875 11.953125 C-1.36664062 12.62859375 -1.67859375 13.3040625 -2 14 C-2.33 14 -2.66 14 -3 14 C-2.58846263 9.02906176 -2.20399168 4.55491614 0 0 Z " fill="#2255A9" transform="translate(637,547)"/>
<path d="M0 0 C0.33 0 0.66 0 1 0 C1.34615998 5.65394631 0.43425238 9.03006806 -2 14 C-2.33 14 -2.66 14 -3 14 C-2.58846263 9.02906176 -2.20399168 4.55491614 0 0 Z " fill="#2252A2" transform="translate(622,587)"/>
<path d="M0 0 C0.33 0.99 0.66 1.98 1 3 C-0.14453125 4.82421875 -0.14453125 4.82421875 -1.8125 6.6875 C-2.35519531 7.31011719 -2.89789063 7.93273437 -3.45703125 8.57421875 C-5 10 -5 10 -7 10 C-7 9.34 -7 8.68 -7 8 C-6.34 8 -5.68 8 -5 8 C-4.67 6.35 -4.34 4.7 -4 3 C-3.01 3 -2.02 3 -1 3 C-0.67 2.01 -0.34 1.02 0 0 Z " fill="#1D58B0" transform="translate(385,575)"/>
<path d="M0 0 C0.66 0.33 1.32 0.66 2 1 C-1.06205348 4.32451521 -3.51311418 6.93731652 -8 8 C-8.99 7.34 -9.98 6.68 -11 6 C-10.37351562 5.73445313 -9.74703125 5.46890625 -9.1015625 5.1953125 C-8.28429687 4.84210938 -7.46703125 4.48890625 -6.625 4.125 C-5.40683594 3.60292969 -5.40683594 3.60292969 -4.1640625 3.0703125 C-1.86197701 2.07553933 -1.86197701 2.07553933 0 0 Z " fill="#2B63B1" transform="translate(505,464)"/>
<path d="M0 0 C1.41655793 -0.0272415 2.83327045 -0.04650467 4.25 -0.0625 C5.43335938 -0.07990234 5.43335938 -0.07990234 6.640625 -0.09765625 C8.90691002 -0.00385306 10.8288895 0.36758937 13 1 C13 1.66 13 2.32 13 3 C11.02013918 2.88652381 9.04108402 2.7589065 7.0625 2.625 C5.96035156 2.55539062 4.85820312 2.48578125 3.72265625 2.4140625 C2.82417969 2.27742188 1.92570312 2.14078125 1 2 C0.67 1.34 0.34 0.68 0 0 Z " fill="#2551A1" transform="translate(491,393)"/>
<path d="M0 0 C1 2 1 2 0.22265625 4.6015625 C-0.16019531 5.59929688 -0.54304687 6.59703125 -0.9375 7.625 C-1.50791016 9.12933594 -1.50791016 9.12933594 -2.08984375 10.6640625 C-2.39019531 11.43492187 -2.69054687 12.20578125 -3 13 C-3.33 13 -3.66 13 -4 13 C-3.85831863 11.56208484 -3.71148957 10.1246763 -3.5625 8.6875 C-3.48128906 7.88699219 -3.40007813 7.08648438 -3.31640625 6.26171875 C-3 4 -3 4 -2 1 C-1.34 0.67 -0.68 0.34 0 0 Z " fill="#1E4D9F" transform="translate(644,532)"/>
<path d="M0 0 C2.475 0.99 2.475 0.99 5 2 C5 2.66 5 3.32 5 4 C5.66 4 6.32 4 7 4 C7.66 5.65 8.32 7.3 9 9 C5.02363296 6.90136184 2.60444383 4.66551353 0 1 C0 0.67 0 0.34 0 0 Z " fill="#1A51A3" transform="translate(503,416)"/>
<path d="M0 0 C-0.99 0.495 -0.99 0.495 -2 1 C-2 1.66 -2 2.32 -2 3 C-4.875 3.125 -4.875 3.125 -8 3 C-8.66 2.34 -9.32 1.68 -10 1 C-6.42181037 -1.33958553 -4.07775191 -0.9267618 0 0 Z " fill="#35B0F6" transform="translate(250,397)"/>
<path d="M0 0 C0.33 0 0.66 0 1 0 C1.17835515 4.54805635 0.99785435 7.8794254 -1 12 C-1.66 12 -2.32 12 -3 12 C-2.40075776 7.80530429 -1.42500059 3.99000166 0 0 Z " fill="#1C4C9D" transform="translate(652,559)"/>
<path d="M0 0 C2.39763185 2.39763185 2.34280586 3.33273498 2.625 6.625 C2.69976563 7.44226563 2.77453125 8.25953125 2.8515625 9.1015625 C2.90054688 9.72804688 2.94953125 10.35453125 3 11 C1 9.375 1 9.375 -1 7 C-1.3125 3.8125 -1.3125 3.8125 -1 1 C-0.67 0.67 -0.34 0.34 0 0 Z " fill="#1F5AB1" transform="translate(816,536)"/>
<path d="M0 0 C1.485 0.99 1.485 0.99 3 2 C3.6875 5.625 3.6875 5.625 4 9 C3.01 9.495 3.01 9.495 2 10 C0.39644899 6.49223216 -0.22036864 3.85645121 0 0 Z " fill="#1C86E1" transform="translate(402,468)"/>
<path d="M0 0 C0.99 0.33 1.98 0.66 3 1 C1.35 2.65 -0.3 4.3 -2 6 C-2.99 5.67 -3.98 5.34 -5 5 C-3.35 3.35 -1.7 1.7 0 0 Z " fill="#34B2F6" transform="translate(224,407)"/>
<path d="M0 0 C2.51699845 2.51699845 3.10964078 4.57554146 4 8 C3.625 10.375 3.625 10.375 3 12 C0.58314288 7.77050005 -0.34833144 4.87664009 0 0 Z " fill="#1C4796" transform="translate(835,592)"/>
<path d="M0 0 C0.66 0 1.32 0 2 0 C1.88557539 1.60495567 1.75805306 3.20898119 1.625 4.8125 C1.55539062 5.70582031 1.48578125 6.59914063 1.4140625 7.51953125 C1 10 1 10 -1 13 C-1.0272415 11.58344207 -1.04650467 10.16672955 -1.0625 8.75 C-1.07410156 7.96109375 -1.08570313 7.1721875 -1.09765625 6.359375 C-1.00385306 4.09308998 -0.63241063 2.1711105 0 0 Z " fill="#2C66B8" transform="translate(406,526)"/>
<path d="M0 0 C1.46067199 0.45082469 2.91848032 0.91093537 4.375 1.375 C5.18710937 1.63023437 5.99921875 1.88546875 6.8359375 2.1484375 C9 3 9 3 11 5 C8 6 8 6 4.375 4.75 C1 3 1 3 0 0 Z " fill="#31A3F0" transform="translate(333,395)"/>
<path d="M0 0 C2.31 0 4.62 0 7 0 C7 0.33 7 0.66 7 1 C5.35 1 3.7 1 2 1 C1.34 3.64 0.68 6.28 0 9 C-0.33 9 -0.66 9 -1 9 C-1.125 2.25 -1.125 2.25 0 0 Z " fill="#3067B4" transform="translate(641,592)"/>
<path d="M0 0 C0.33 0.66 0.66 1.32 1 2 C1.66 2.33 2.32 2.66 3 3 C3.59355614 5.64860427 3.74209269 8.29197322 4 11 C3.67 10.34 3.34 9.68 3 9 C2.34 9 1.68 9 1 9 C0.67 6.03 0.34 3.06 0 0 Z " fill="#2E64B2" transform="translate(680,534)"/>
<path d="M0 0 C2.55902083 4.94047694 3.41067779 8.51403082 2 14 C1.67 14 1.34 14 1 14 C-0.20568053 9.32798795 -0.09382426 4.78503708 0 0 Z " fill="#2F7CC6" transform="translate(173,518)"/>
<path d="M0 0 C0 0.66 0 1.32 0 2 C-3.82989106 3.80230168 -6.78121808 4.19622241 -11 4 C-7.32740617 1.55160412 -4.45351799 0 0 0 Z " fill="#1C54AD" transform="translate(341,612)"/>
<path d="M0 0 C2.45823172 3.68734758 3.01242616 6.69699971 4 11 C3.01 10.67 2.02 10.34 1 10 C-0.1577506 6.52674819 -0.06866652 3.63932552 0 0 Z " fill="#2F5FAA" transform="translate(859,598)"/>
<path d="M0 0 C0.99 0.33 1.98 0.66 3 1 C1.68 2.32 0.36 3.64 -1 5 C-2.32 4.34 -3.64 3.68 -5 3 C-2.6875 1.4375 -2.6875 1.4375 0 0 Z " fill="#31B1F7" transform="translate(234,401)"/>
<path d="M0 0 C0.33 0.99 0.66 1.98 1 3 C3.31 3.33 5.62 3.66 8 4 C7.67 4.99 7.34 5.98 7 7 C6.34 7 5.68 7 5 7 C4.34 6.34 3.68 5.68 3 5 C0.93125966 4.3574765 0.93125966 4.3574765 -1 4 C-0.67 2.68 -0.34 1.36 0 0 Z " fill="#3D76BF" transform="translate(769,608)"/>
<path d="M0 0 C0.33 0 0.66 0 1 0 C1.25 2.75 1.25 2.75 1 6 C-1 8.375 -1 8.375 -3 10 C-2.01 6.7 -1.02 3.4 0 0 Z " fill="#194A9C" transform="translate(805,566)"/>
<path d="M0 0 C0.66 0 1.32 0 2 0 C1.6875 3.375 1.6875 3.375 1 7 C0.01 7.66 -0.98 8.32 -2 9 C-1.34 6.03 -0.68 3.06 0 0 Z " fill="#1A4797" transform="translate(521,554)"/>
<path d="M0 0 C0.66 0 1.32 0 2 0 C1.25 5.75 1.25 5.75 -1 8 C-2.2077558 4.37673261 -1.54311128 3.35853631 0 0 Z " fill="#1F57AB" transform="translate(513,452)"/>
<path d="M0 0 C1.485 0.99 1.485 0.99 3 2 C3.6875 5.625 3.6875 5.625 4 9 C3.34 9 2.68 9 2 9 C0.14223235 5.86501708 -0.20140476 3.62528568 0 0 Z " fill="#154498" transform="translate(513,427)"/>
<path d="M0 0 C0.33 0 0.66 0 1 0 C1 4.95 1 9.9 1 15 C0.67 15 0.34 15 0 15 C0 10.05 0 5.1 0 0 Z " fill="#266BC2" transform="translate(640,456)"/>
<path d="M0 0 C0.33 0 0.66 0 1 0 C1 4.62 1 9.24 1 14 C0.67 14 0.34 14 0 14 C0 9.38 0 4.76 0 0 Z " fill="#256BC2" transform="translate(640,433)"/>
<path d="M0 0 C0.33 0 0.66 0 1 0 C1 3.63 1 7.26 1 11 C0.67 11 0.34 11 0 11 C0 7.37 0 3.74 0 0 Z " fill="#286BC0" transform="translate(640,401)"/>
<path d="M0 0 C0.33 0 0.66 0 1 0 C1 2.31 1 4.62 1 7 C0.67 7 0.34 7 0 7 C0 4.69 0 2.38 0 0 Z " fill="#256AC1" transform="translate(640,477)"/>
<path d="M0 0 C1.98 0 3.96 0 6 0 C6 0.33 6 0.66 6 1 C4.02 1 2.04 1 0 1 C0 0.67 0 0.34 0 0 Z " fill="#256CC5" transform="translate(480,414)"/>
<path d="M0 0 C1 4 1 4 1 4 Z " fill="#296DC3" transform="translate(537,562)"/>
<path d="M0 0 C1 4 1 4 1 4 Z " fill="#286FC5" transform="translate(537,530)"/>
<path d="M0 0 C1 4 1 4 1 4 Z " fill="#2468C0" transform="translate(640,472)"/>
<path d="M0 0 C1 4 1 4 1 4 Z " fill="#2569C1" transform="translate(640,448)"/>
<path d="M0 0 C0.66 0.66 1.32 1.32 2 2 C1.01 1.67 0.02 1.34 -1 1 C-0.67 0.67 -0.34 0.34 0 0 Z " fill="#266CC3" transform="translate(505,421)"/>
<path d="" fill="#2767BE" transform="translate(0,0)"/>
<path d="" fill="#286EC5" transform="translate(0,0)"/>
<path d="" fill="#2A70C5" transform="translate(0,0)"/>
<path d="M0 0 C3 1 3 1 3 1 Z " fill="#2A6FC5" transform="translate(652,513)"/>
<path d="M0 0 C3 1 3 1 3 1 Z " fill="#296DC4" transform="translate(644,492)"/>
<path d="" fill="#276CC0" transform="translate(0,0)"/>
<path d="" fill="#296EC4" transform="translate(0,0)"/>
<path d="" fill="#296EC3" transform="translate(0,0)"/>
<path d="M0 0 C2 1 2 1 2 1 Z " fill="#346DB9" transform="translate(267,623)"/>
<path d="" fill="#376DB7" transform="translate(0,0)"/>
<path d="M0 0 C2 1 2 1 2 1 Z " fill="#2F67AE" transform="translate(633,613)"/>
<path d="" fill="#3171C0" transform="translate(0,0)"/>
<path d="" fill="#2A6DC0" transform="translate(0,0)"/>
<path d="" fill="#2B69B8" transform="translate(0,0)"/>
<path d="" fill="#2B70C3" transform="translate(0,0)"/>
<path d="M0 0 C2 1 2 1 2 1 Z " fill="#2B6DC0" transform="translate(488,581)"/>
<path d="" fill="#2B6FC4" transform="translate(0,0)"/>
<path d="" fill="#2666B6" transform="translate(0,0)"/>
<path d="" fill="#296DC4" transform="translate(0,0)"/>
<path d="" fill="#246BC5" transform="translate(0,0)"/>
<path d="" fill="#266AC0" transform="translate(0,0)"/>
<path d="" fill="#276FC5" transform="translate(0,0)"/>
<path d="M0 0 C2 1 2 1 2 1 Z " fill="#256EC8" transform="translate(484,535)"/>
<path d="M0 0 C2 1 2 1 2 1 Z " fill="#2A71C7" transform="translate(475,535)"/>
<path d="" fill="#2B6EC2" transform="translate(0,0)"/>
<path d="" fill="#266AC1" transform="translate(0,0)"/>
<path d="" fill="#469EDB" transform="translate(0,0)"/>
<path d="M0 0 C2 1 2 1 2 1 Z " fill="#2A70C4" transform="translate(649,512)"/>
<path d="M0 0 C2 1 2 1 2 1 Z " fill="#296EC6" transform="translate(561,492)"/>
<path d="M0 0 C2 1 2 1 2 1 Z " fill="#2A70C6" transform="translate(557,492)"/>
<path d="M0 0 C2 1 2 1 2 1 Z " fill="#256DC5" transform="translate(485,492)"/>
<path d="M0 0 C2 1 2 1 2 1 Z " fill="#276DC9" transform="translate(478,492)"/>
<path d="M0 0 C2 1 2 1 2 1 Z " fill="#2268C2" transform="translate(499,466)"/>
<path d="" fill="#2569C2" transform="translate(0,0)"/>
<path d="" fill="#1F68C3" transform="translate(0,0)"/>
<path d="" fill="#296DC4" transform="translate(0,0)"/>
<path d="" fill="#276BC1" transform="translate(0,0)"/>
<path d="" fill="#266CC2" transform="translate(0,0)"/>
<path d="" fill="#276CC3" transform="translate(0,0)"/>
<path d="M0 0 C2 1 2 1 2 1 Z " fill="#266CC5" transform="translate(475,415)"/>
<path d="" fill="#286CC2" transform="translate(0,0)"/>
<path d="" fill="#45A7EA" transform="translate(0,0)"/>
<path d="" fill="#4D4E4D" transform="translate(0,0)"/>
<path d="" fill="#336EB8" transform="translate(0,0)"/>
<path d="" fill="#366FB9" transform="translate(0,0)"/>
<path d="" fill="#346BB5" transform="translate(0,0)"/>
<path d="" fill="#3A6CB3" transform="translate(0,0)"/>
<path d="" fill="#3D6CAC" transform="translate(0,0)"/>
<path d="" fill="#3768AA" transform="translate(0,0)"/>
<path d="" fill="#346CB5" transform="translate(0,0)"/>
<path d="" fill="#336AB4" transform="translate(0,0)"/>
<path d="" fill="#346EB7" transform="translate(0,0)"/>
<path d="" fill="#326EB6" transform="translate(0,0)"/>
<path d="" fill="#366DB3" transform="translate(0,0)"/>
<path d="" fill="#336CB2" transform="translate(0,0)"/>
<path d="" fill="#3469B2" transform="translate(0,0)"/>
<path d="" fill="#346EBA" transform="translate(0,0)"/>
<path d="" fill="#356BB6" transform="translate(0,0)"/>
<path d="" fill="#326AB1" transform="translate(0,0)"/>
<path d="" fill="#3369B1" transform="translate(0,0)"/>
<path d="" fill="#366BB8" transform="translate(0,0)"/>
<path d="" fill="#346FB9" transform="translate(0,0)"/>
<path d="" fill="#326BB6" transform="translate(0,0)"/>
<path d="" fill="#326DB9" transform="translate(0,0)"/>
<path d="" fill="#336CB9" transform="translate(0,0)"/>
<path d="" fill="#2E68BA" transform="translate(0,0)"/>
<path d="" fill="#306EBA" transform="translate(0,0)"/>
<path d="" fill="#3371BA" transform="translate(0,0)"/>
<path d="" fill="#2F6CBE" transform="translate(0,0)"/>
<path d="" fill="#2B6ABF" transform="translate(0,0)"/>
<path d="" fill="#2C6CBF" transform="translate(0,0)"/>
<path d="" fill="#2C6CBE" transform="translate(0,0)"/>
<path d="" fill="#226AC1" transform="translate(0,0)"/>
<path d="" fill="#2E70C1" transform="translate(0,0)"/>
<path d="" fill="#2D6DC0" transform="translate(0,0)"/>
<path d="" fill="#2465B9" transform="translate(0,0)"/>
<path d="" fill="#286CBE" transform="translate(0,0)"/>
<path d="" fill="#2D69B5" transform="translate(0,0)"/>
<path d="" fill="#226BC4" transform="translate(0,0)"/>
<path d="" fill="#2A6CC2" transform="translate(0,0)"/>
<path d="" fill="#266BBE" transform="translate(0,0)"/>
<path d="" fill="#2969BF" transform="translate(0,0)"/>
<path d="" fill="#3773BB" transform="translate(0,0)"/>
<path d="" fill="#3A76BA" transform="translate(0,0)"/>
<path d="" fill="#2B70C4" transform="translate(0,0)"/>
<path d="" fill="#2A6FC0" transform="translate(0,0)"/>
<path d="" fill="#3976BE" transform="translate(0,0)"/>
<path d="" fill="#216AC4" transform="translate(0,0)"/>
<path d="" fill="#2C6AB8" transform="translate(0,0)"/>
<path d="" fill="#296CC2" transform="translate(0,0)"/>
<path d="" fill="#2B6FC3" transform="translate(0,0)"/>
<path d="" fill="#2469C0" transform="translate(0,0)"/>
<path d="" fill="#296EC2" transform="translate(0,0)"/>
<path d="" fill="#266DC5" transform="translate(0,0)"/>
<path d="" fill="#1F65BE" transform="translate(0,0)"/>
<path d="" fill="#256BC3" transform="translate(0,0)"/>
<path d="" fill="#276CC0" transform="translate(0,0)"/>
<path d="" fill="#3B7AC3" transform="translate(0,0)"/>
<path d="" fill="#226AC1" transform="translate(0,0)"/>
<path d="" fill="#2368C2" transform="translate(0,0)"/>
<path d="" fill="#276AC3" transform="translate(0,0)"/>
<path d="" fill="#266BC2" transform="translate(0,0)"/>
<path d="" fill="#2E6DBC" transform="translate(0,0)"/>
<path d="" fill="#2D6BBC" transform="translate(0,0)"/>
<path d="" fill="#2F70C4" transform="translate(0,0)"/>
<path d="" fill="#286CC6" transform="translate(0,0)"/>
<path d="" fill="#296BC1" transform="translate(0,0)"/>
<path d="" fill="#236AC6" transform="translate(0,0)"/>
<path d="" fill="#246AC1" transform="translate(0,0)"/>
<path d="" fill="#2F6FBE" transform="translate(0,0)"/>
<path d="" fill="#286BC1" transform="translate(0,0)"/>
<path d="" fill="#276BC2" transform="translate(0,0)"/>
<path d="" fill="#216AC6" transform="translate(0,0)"/>
<path d="" fill="#236ABF" transform="translate(0,0)"/>
<path d="" fill="#266CC4" transform="translate(0,0)"/>
<path d="" fill="#2268C3" transform="translate(0,0)"/>
<path d="" fill="#256DC5" transform="translate(0,0)"/>
<path d="" fill="#3E86C9" transform="translate(0,0)"/>
<path d="" fill="#2C69BB" transform="translate(0,0)"/>
<path d="" fill="#2A71C7" transform="translate(0,0)"/>
<path d="" fill="#246BC2" transform="translate(0,0)"/>
<path d="" fill="#2A70C5" transform="translate(0,0)"/>
<path d="" fill="#266DC2" transform="translate(0,0)"/>
<path d="" fill="#2B6EC2" transform="translate(0,0)"/>
<path d="" fill="#2369BF" transform="translate(0,0)"/>
<path d="" fill="#286FC6" transform="translate(0,0)"/>
<path d="" fill="#256FCA" transform="translate(0,0)"/>
<path d="" fill="#286ABE" transform="translate(0,0)"/>
<path d="" fill="#266AC3" transform="translate(0,0)"/>
<path d="" fill="#266BC1" transform="translate(0,0)"/>
<path d="" fill="#266ABE" transform="translate(0,0)"/>
<path d="" fill="#419ADC" transform="translate(0,0)"/>
<path d="" fill="#489EDB" transform="translate(0,0)"/>
<path d="" fill="#296DC0" transform="translate(0,0)"/>
<path d="" fill="#4CA4E1" transform="translate(0,0)"/>
<path d="" fill="#2C6EC3" transform="translate(0,0)"/>
<path d="" fill="#2E71C2" transform="translate(0,0)"/>
<path d="" fill="#2E71C5" transform="translate(0,0)"/>
<path d="" fill="#2C73C5" transform="translate(0,0)"/>
<path d="" fill="#47A5E0" transform="translate(0,0)"/>
<path d="" fill="#2769C2" transform="translate(0,0)"/>
<path d="" fill="#3272C1" transform="translate(0,0)"/>
<path d="" fill="#2F71C1" transform="translate(0,0)"/>
<path d="" fill="#2E72C5" transform="translate(0,0)"/>
<path d="" fill="#2973C5" transform="translate(0,0)"/>
<path d="" fill="#2C6CC1" transform="translate(0,0)"/>
<path d="" fill="#2A6DC2" transform="translate(0,0)"/>
<path d="" fill="#2B74CB" transform="translate(0,0)"/>
<path d="" fill="#276DC0" transform="translate(0,0)"/>
<path d="" fill="#286CC4" transform="translate(0,0)"/>
<path d="" fill="#256BC3" transform="translate(0,0)"/>
<path d="" fill="#2C74CB" transform="translate(0,0)"/>
<path d="" fill="#2D76CF" transform="translate(0,0)"/>
<path d="" fill="#2D76CC" transform="translate(0,0)"/>
<path d="" fill="#2F74C7" transform="translate(0,0)"/>
<path d="" fill="#2C72C8" transform="translate(0,0)"/>
<path d="" fill="#3671BC" transform="translate(0,0)"/>
<path d="" fill="#2B6EC0" transform="translate(0,0)"/>
<path d="" fill="#2D72C3" transform="translate(0,0)"/>
<path d="" fill="#2C6DC3" transform="translate(0,0)"/>
<path d="" fill="#296DC6" transform="translate(0,0)"/>
<path d="" fill="#276BC5" transform="translate(0,0)"/>
<path d="" fill="#276DC6" transform="translate(0,0)"/>
<path d="" fill="#286FC7" transform="translate(0,0)"/>
<path d="" fill="#266DC6" transform="translate(0,0)"/>
<path d="" fill="#2B6FC7" transform="translate(0,0)"/>
<path d="" fill="#276DC6" transform="translate(0,0)"/>
<path d="" fill="#2B71C5" transform="translate(0,0)"/>
<path d="" fill="#2E72C6" transform="translate(0,0)"/>
<path d="" fill="#2E77C9" transform="translate(0,0)"/>
<path d="" fill="#316EBA" transform="translate(0,0)"/>
<path d="" fill="#286CC5" transform="translate(0,0)"/>
<path d="" fill="#2A6FC5" transform="translate(0,0)"/>
<path d="" fill="#296EC3" transform="translate(0,0)"/>
<path d="" fill="#2B78CA" transform="translate(0,0)"/>
<path d="" fill="#2870C8" transform="translate(0,0)"/>
<path d="" fill="#2468C3" transform="translate(0,0)"/>
<path d="" fill="#286EC6" transform="translate(0,0)"/>
<path d="" fill="#2569C2" transform="translate(0,0)"/>
<path d="" fill="#256CC7" transform="translate(0,0)"/>
<path d="" fill="#256DC4" transform="translate(0,0)"/>
<path d="" fill="#2C74C8" transform="translate(0,0)"/>
<path d="" fill="#2A6EC3" transform="translate(0,0)"/>
<path d="" fill="#246BC4" transform="translate(0,0)"/>
<path d="" fill="#276BC0" transform="translate(0,0)"/>
<path d="" fill="#236BC4" transform="translate(0,0)"/>
<path d="" fill="#266CC0" transform="translate(0,0)"/>
<path d="" fill="#266BC2" transform="translate(0,0)"/>
<path d="" fill="#4EB5ED" transform="translate(0,0)"/>
<path d="" fill="#266FC7" transform="translate(0,0)"/>
<path d="" fill="#2A6EC3" transform="translate(0,0)"/>
<path d="" fill="#3275C2" transform="translate(0,0)"/>
<path d="" fill="#3DA1E9" transform="translate(0,0)"/>
<path d="" fill="#3FA3EA" transform="translate(0,0)"/>
<path d="" fill="#2D6ABA" transform="translate(0,0)"/>
<path d="" fill="#276FC4" transform="translate(0,0)"/>
<path d="" fill="#296CBE" transform="translate(0,0)"/>
<path d="" fill="#41A7E9" transform="translate(0,0)"/>
<path d="" fill="#2D70C0" transform="translate(0,0)"/>
<path d="" fill="#306EBF" transform="translate(0,0)"/>
<path d="" fill="#4DB7F2" transform="translate(0,0)"/>
<path d="" fill="#3170BF" transform="translate(0,0)"/>
<path d="" fill="#2E70C1" transform="translate(0,0)"/>
<path d="" fill="#45AAEA" transform="translate(0,0)"/>
<path d="" fill="#2F71C0" transform="translate(0,0)"/>
<path d="" fill="#48AEEC" transform="translate(0,0)"/>
</svg>
